<svg xmlns="http://www.w3.org/2000/svg" viewBox="0 0 512 200"><g transform="translate(425.01,110)"><path fill="#137333" d="M0 61.21c8.98-9.42 14.49-22.17 14.49-36.21c0-4.87-0.66-9.59-1.91-14.06c7.89-6.82 18.17-10.94 29.41-10.94c24.85 0 45 20.15 45 45c0 24.85-20.15 45-45 45c-19.14 0-35.48-11.94-41.99-28.79Z" fill-rule="evenodd"/><path fill="#fff" d="M49.95 25.51c1.17-2.08 2.5-3.71 3.41-4.17c2.75-1.42 3.92-1.06 11.24 3.61c6.04 3.87 6.86 4.93 5.28 7.12c-0.61 .76-1.52 1.02-4.93 1.22l-4.17 .25l-0.66 2.29c-0.96 3.26-0.91 3.41 1.32 4.58c3.82 1.93 3.16 3.96-0.91 2.74c-1.27-0.4-2.34-0.66-2.39-0.61c-0.05 .1-1.22 3.92-2.54 8.49c-2.44 8.19-2.44 8.34-1.83 11.44c.81 3.86 .81 3.86 2.59 3.86c.81 0 1.83 .36 2.29 .82c1.22 1.22 .05 2.23-2.59 2.23c-2.14 0-2.29-0.1-6.92-5.39l-4.73-5.38l-1.32 1.62c-0.76 .87-2.08 2.6-2.95 3.87l-1.62 2.23h1.17c.71 0 1.67 .31 2.18 .72c.87 .6 .87 .81 .31 1.52c-0.56 .66-1.43 .81-3.82 .71l-3.1-0.15l-0.15-5.49c-0.05-3-0.2-5.44-0.25-5.44c-0.1 0-1.02 .46-2.04 .97c-2.79 1.42-7.98 2.13-14.08 1.98c-4.22-0.1-5.34-0.31-5.34-0.87c0-0.5 1.28-1.06 3.66-1.62c1.99-0.51 4.43-1.27 5.34-1.78c8.69-4.42 19.22-16.37 27.55-31.37Zm7.94-0.1c0 .41-0.36 .76-0.77 .76c-0.4 0-0.76-0.35-0.76-0.76c0-0.41 .36-0.76 .76-0.76c.41 0 .77 .35 .77 .76Zm8.94 5.08c.31 .77 1.22 .56 1.22-0.3c0-0.25-0.35-0.46-0.76-0.46c-0.46 0-0.61 .31-0.46 .76Zm-1.32-0.25c0 .25-0.2 .51-0.46 .51c-0.3 0-0.66-0.26-0.81-0.51c-0.15-0.3 .05-0.51 .46-0.51c.45 0 .81 .21 .81 .51Zm-3.1 .51c.3 0 .66-0.26 .81-0.51c.16-0.3-0.05-0.51-0.45-0.51c-0.46 0-0.82 .21-0.82 .51c0 .25 .21 .51 .46 .51Z" fill-rule="evenodd"/></g><g transform="translate(0,110)"><path fill="#a35a00" d="M74.41 10.94c-7.89-6.82-18.17-10.94-29.41-10.94c-24.85 0-45 20.15-45 45c0 24.85 20.15 45 45 45c19.14 0 35.48-11.94 41.99-28.79c-8.98-9.42-14.49-22.17-14.49-36.21c0-4.87 .66-9.59 1.91-14.06Z" fill-rule="evenodd"/><path fill="#fff" d="M29.37 25.72c.67 1.03 2.57 2.98 4.21 4.42l3.03 2.61l-1.44 2.62c-0.77 1.49-1.49 2.87-1.59 3.18c-0.1 .26 .92-0.46 2.36-1.64l2.56-2.16l1.18 1.23l1.13 1.24l-1.69 2.92c-0.09 .16-0.17 .31-0.25 .45c-0.62 1.12-0.98 1.75-0.86 1.87c.17 .15 1.17-0.62 3.51-2.42c.28-0.21 .57-0.43 .88-0.67c4.06-3.13 4.98-2.62 2.67 1.54c-0.97 1.69-1.8 3.23-1.8 3.38c0 .11 1.8-1.38 3.95-3.38c2.52-2.31 4.37-3.64 5.13-3.64c1.59 0 1.49 .51-0.66 4.51l-1.9 3.44l4.15-4.05c3.85-3.8 4.21-4.01 5.85-3.7c2 .36 4.36 2.36 5.08 4.31c.41 1.03 .31 3.34-0.36 8.31c-0.77 6.05-1.13 7.44-2.87 10.88c-1.64 3.38-2.15 4-3.23 4c-1.54 0-1.59-0.31-0.16-4.62l1.08-3.44l-1.44-1.95l-1.48-1.89l-2.98 5.95c-2.61 5.28-3.13 5.95-4.31 5.95c-1.13 0-1.23-0.16-0.92-1.18c.2-0.62 1.13-3.8 2-7.03l1.64-5.9l-3.49-0.15c-1.95-0.11-3.54-0.26-3.54-0.41c0-0.16 .47-1.13 1.03-2.26c.56-1.13 1.03-2.16 1.03-2.31c0-0.2-1.34 .77-3.03 2.16l-3.03 2.46l-1.38 5.9c-1.86 8.01-2.16 9.45-2.87 9.7c-0.16 .05-0.34 .05-0.55 .05c-0.06-0.01-0.11-0.01-0.17-0.01h-1.29v-11.8l2.31-4.61c1.28-2.52 2.31-4.77 2.31-4.98c0-0.2-1.13 .77-2.56 2.16c-2.47 2.41-2.57 2.46-3.29 1.54c-0.61-0.88-0.51-1.44 1.34-5.13l2.05-4.11l-2.77 2.72l-2.77 2.67l-0.82-1.44c-0.82-1.38-0.82-1.54 .87-4.61c1.74-3.29 1.64-3.34-1.13-1.34c-1.9 1.44-2.51 1.54-2.92 .46c-0.21-0.61-0.72-0.72-2.11-0.46c-1.79 .31-1.84 .26-1.53-0.97c.2-0.72 .1-1.44-0.16-1.59c-0.26-0.16-0.67 .51-0.82 1.54c-0.26 1.28-0.72 1.94-1.69 2.3c-1.59 .62-2.72 .26-2.72-0.77c0-1.23 6.72-11.18 7.74-11.44c.47-0.15 .98-0.66 1.13-1.23c.36-1.43 .98-1.18 2.36 .82Zm8.67 1.34c1.75 .87 4.82 3.13 6.88 5.08l3.74 3.54l-3.13 .05h-3.18l-5.54-4.93c-3.08-2.72-5.69-5.02-5.8-5.13c-0.1-0.1 .72-0.2 1.85-0.2c1.23 0 3.23 .61 5.18 1.59Zm-11.18 3.79c-0.41 0-0.82-0.41-0.92-0.92c-0.11-0.61 .15-0.87 .92-0.87c.77 0 1.03 .26 .92 .87c-0.1 .51-0.51 .92-0.92 .92Zm44.63 14.37c.87 1.02 .2 4.26-1.59 7.85c-1.39 2.82-3.8 5.69-4.31 5.18c-0.41-0.41 1.69-12.31 2.36-13.08c.77-0.93 2.72-0.93 3.54 .05Z" fill-rule="evenodd"/></g><g transform="translate(80,90)"><path fill="#d31763" d="M68.55 6.65c-6.85-4.22-14.92-6.65-23.55-6.65c-24.85 0-45 20.15-45 45c0 24.85 20.15 45 45 45c17.06 0 31.9-9.49 39.53-23.49c-10.16-16.42-16.03-35.78-16.03-56.51c0-1.12 .02-2.24 .05-3.35Z" fill-rule="evenodd"/><path fill="#fff" d="M27.4 23.76c1.05 1.15 1.55 1.3 5.26 1.35c3.86 .05 4.16-0.05 5.36-1.3c.7-0.75 1.7-1.4 2.25-1.5c1.2-0.2 1.2-0.15-0.3 7.71l-1.1 5.82l6.36 11.42c3.51 6.26 6.52 12.07 6.67 12.97c.15 .86-0.1 2.36-0.56 3.41l-0.75 1.85h5.96c6.47 0 8.02-0.35 10.22-2.4c3.71-3.51 3.71-9.12 0-12.07c-4.4-3.51-10.87 .15-9.21 5.21c1.05 3.25 5.61 3.7 6.41 .6c.3-1.11 .75-1.66 1.5-1.76c.95-0.15 1.1 .05 1.1 1.41c0 2.2-2.8 5.01-4.96 5.01c-4.45 0-7.71-4.26-6.56-8.57c.65-2.31 3.86-5.31 6.16-5.71c3.81-0.75 8.22 1.7 9.92 5.51c1.71 3.71 .96 7.91-2 11.32c-0.72 .86-1.27 1.54-1.94 2.07c-2.38 1.89-6.27 1.89-25.05 1.89h-0.92c-22.64 0-23.24-0.05-23.24-1.95c0-1.61 1.6-2.56 4.21-2.56h2.6l-0.5-3.76c-0.55-4.51-0.05-6.01 2.36-7.01l1.7-0.7l-1.85-12.68c-1.06-6.96-2.06-13.78-2.26-15.13c-0.35-2.35-0.35-2.4 .8-2.05c.65 .2 1.71 .9 2.36 1.6Zm3.6 6.66c-0.25 0-0.5-0.35-0.5-0.75c0-0.4 .25-0.75 .5-0.75c.3 0 .51 .35 .51 .75c0 .4-0.21 .75-0.51 .75Zm4.51-0.75c0 .4 .25 .75 .5 .75c.3 0 .51-0.35 .51-0.75c0-0.4-0.21-0.75-0.51-0.75c-0.25 0-0.5 .35-0.5 .75Zm-2.5 2.51c-0.35-0.2-0.3-0.65 .05-1.35c.8-1.46 1.45-0.26 1.1 1.95c-0.25 1.6 .5 2.35 1 1c.11-0.24 .18-0.35 .23-0.34c.05 .01 .07 .13 .07 .34c.05 .8-1.7 1.7-2.65 1.35c-0.4-0.15-0.85-0.65-1.05-1.1c-0.25-0.7-0.2-0.75 .3-0.25c.35 .35 .85 .65 1.05 .65c.6 0 .5-1.9-0.1-2.25Zm3 9.22c0 1.2 .66 1.65 1.71 1.25c1.35-0.5 1-2.21-0.45-2.21c-0.91 0-1.26 .25-1.26 .96Zm-3.7 5.56c-0.45 0-0.8-0.35-0.8-0.8c0-0.86 1.1-0.71 1.4 .2c.1 .35-0.15 .6-0.6 .6Zm7.71 1.75c0 1.1 .2 1.3 1.15 1.15c.71-0.1 1.11-0.5 1.11-1.15c0-0.65-0.4-1.05-1.11-1.15c-0.95-0.15-1.15 .05-1.15 1.15Zm-6.91 7.11c-0.1-0.5-0.05-1.25 .1-1.65c.65-1.7 3.56-0.2 3.2 1.65c-0.25 1.26-3.05 1.26-3.3 0Zm7.56 1.51c-0.9 .35-0.8 2.9 .1 3.65c1.01 .86 3.11 .26 3.51-1c.65-2.1-1.35-3.6-3.61-2.65Zm-9.47 7.56c-0.45-0.45-0.7-1.2-0.55-1.6c.2-0.45 .8-0.8 1.36-0.8c1.35 0 1.85 1.35 .8 2.4c-0.75 .75-0.85 .75-1.61 0Z" fill-rule="evenodd"/></g><g transform="translate(347.47,90)"><path fill="#9334e6" d="M0 66.51c10.17-16.42 16.03-35.78 16.03-56.51c0-1.12-0.01-2.24-0.05-3.35c6.85-4.22 14.92-6.65 23.55-6.65c24.86 0 45 20.15 45 45c0 24.85-20.14 45-45 45c-17.06 0-31.9-9.49-39.53-23.49Z" fill-rule="evenodd"/><path fill="#fff" d="M41.4 24.45c1.15 .69 2.55 2.04 3.3 3.34c1.15 2 1.35 2.95 1.8 10.94c.35 5.89 .75 8.84 1.15 8.94c1.74 .6 6.94-6.44 7.84-10.64c.3-1.4 .2-1.6-1.05-1.85c-0.8-0.15-2.05-0.8-2.85-1.39c-2.35-1.85-3.69-6.5-2.1-7.1c1.4-0.55 4.55 .6 6.05 2.25l1.5 1.65l1.54-1.6c1.55-1.6 5.25-3 6.25-2.35c.35 .2 .45 1.2 .3 2.55c-0.3 2.6-2.65 5.39-4.95 5.89c-1.1 .25-1.4 .55-1.15 1.15c.2 .5 .45 2.35 .6 4.2c.6 6.79-1.89 13.53-6.64 18.18l-2.65 2.6l1.2 .8c.7 .44 2.05 .99 3.05 1.19c2.05 .4 3.05 1.5 2.5 2.85c-0.3 .75-0.75 .85-3.45 .55c-1.7-0.15-4.25-0.85-5.64-1.55l-2.5-1.25l-2.85 1c-1.95 .7-4.09 1-6.94 1c-4.85 0-7.09-0.55-8.74-2.1l-1.15-1.1l-1.05 1.15c-1.45 1.55-3.9 2.5-7.39 2.85c-3.2 .35-3.85-0.05-3.35-2c.2-0.9 .75-1.25 2.2-1.45c2.85-0.35 4.39-1.59 5.89-4.64c1.25-2.5 1.4-3.6 2.2-15.63c1-14.64 1.4-15.99 5.25-18.33c2.79-1.7 8.89-1.75 11.83-0.1Zm-10.84 10.38c-0.74 0-1.04-1.04-0.45-1.64c.5-0.45 1.2 .1 1.2 .95c0 .39-0.35 .69-0.75 .69Zm8.55-1.64c-0.6 .6-0.3 1.64 .44 1.64c.4 0 .75-0.3 .75-0.69c0-0.85-0.7-1.4-1.19-0.95Zm-5.55 4.64c-0.4-0.35-0.75-0.8-0.75-1.05c0-0.7 .8-0.55 1.5 .3c.6 .7 .75 .7 1.5 0c.5-0.45 1.05-0.6 1.2-0.35c.15 .25-0.05 .75-0.45 1.1c-1.05 .85-0.95 1.85 .2 2.5c1.3 .65 2.44 .15 3.24-1.4c.65-1.25 .7-1.15 1.3 2.3c.7 4.24 .2 7.44-1.85 11.19c-1.49 2.74-2.34 3.64-3.09 3.14c-0.35-0.2-0.1-1.15 .7-2.64c1.45-2.85 2-5.8 1.55-8.7c-0.3-1.79-0.65-2.29-2-2.94c-1.5-0.65-1.75-0.7-2.85 0c-1.8 1.15-1.95 1.5-1.95 4.99c0 2.35 .35 3.9 1.3 6.1c.75 1.64 1.2 3.09 1.05 3.29c-0.55 .55-2.4-1.45-3.8-4.09c-1.14-2.2-1.29-3.1-1.34-7.75c0-2.89 .05-5.44 .2-5.64c.1-0.25 .64 .25 1.14 1.1c1 1.65 1.5 1.85 3 1.05c1.15-0.65 1.25-1.65 .2-2.5Z" fill-rule="evenodd"/></g><g transform="translate(156,0)"><ellipse rx="200" ry="200" fill="#83d317" transform="translate(100,100) scale(.5,.5)"/><path d="M142.37 148.66l-34.04-34.04c-2.82 2.45-6.12 4.35-9.88 5.72c-3.77 1.36-7.77 2.05-12.01 2.05c-10.17 0-18.78-3.54-25.85-10.6c-7.06-7.06-10.59-15.58-10.59-25.56c0-9.98 3.53-18.5 10.59-25.57c7.07-7.06 15.63-10.59 25.71-10.59c9.98 0 18.48 3.53 25.49 10.59c7.02 7.07 10.53 15.59 10.53 25.57c0 4.05-0.66 7.95-1.98 11.72c-1.32 3.77-3.3 7.3-5.93 10.59l34.32 34.04c.85 .76 1.27 1.72 1.27 2.9c0 1.18-0.47 2.24-1.41 3.18c-0.85 .84-1.89 1.27-3.11 1.27c-1.22 0-2.26-0.43-3.11-1.27Zm-56.07-34.75c7.63 0 14.12-2.71 19.49-8.12c5.37-5.41 8.05-11.93 8.05-19.56c0-7.63-2.68-14.15-8.05-19.56c-5.37-5.42-11.86-8.13-19.49-8.13c-7.72 0-14.29 2.71-19.7 8.13c-5.42 5.41-8.13 11.93-8.13 19.56c0 7.63 2.71 14.15 8.13 19.56c5.41 5.41 11.98 8.12 19.7 8.12Z" fill="#fff"/></g></svg>