<svg xmlns="http://www.w3.org/2000/svg" viewBox="0 0 1000 1000"><path d="M860 375l125-125c4-4 6-9 5-14c-1-6-4-11-9-14l-335-194c-7-4-16-2-22 3l-124 125l-124-124c-6-6-15-7-22-3l-335 193c-5 3-8 8-9 14c-1 5 1 10 5 14l124 125l-124 124c-4 4-6 10-5 15c1 6 4 10 9 13l128 74v161c0 7 3 12 9 16l335 194c3 1 6 2 9 2c3 0 6-1 9-2l335-194c6-4 9-9 9-16v-161l128-74c5-3 8-8 9-13c0-5-1-11-5-15Zm-500-311l111 111l-304 175l-111-111Zm280 0l303 175l-111 111l-18-10l-285-165Zm160 308l-300 174l-300-174l225-130l75-43l271 157Zm-160 309l-111-111l303-176l111 112Zm-472-286l303 175l-111 111l-187-108l-117-67Zm14 224l172 100c3 1 6 2 9 2c0 0 1 0 1 0c4 0 8-2 12-5l106-107v314l-300-173Zm636 131l-300 173v-314l106 107c3 3 7 4 12 5c0 0 0 0 1 0c3 0 6-1 8-2l172-100v131Z" fill-rule="evenodd"/></svg>